<?xml version="1.0" encoding="UTF-8" standalone="no"?>
<svg
   xmlns:dc="http://purl.org/dc/elements/1.1/"
   xmlns:cc="http://creativecommons.org/ns#"
   xmlns:rdf="http://www.w3.org/1999/02/22-rdf-syntax-ns#"
   xmlns:svg="http://www.w3.org/2000/svg"
   xmlns="http://www.w3.org/2000/svg"
   id="svg1529"
   version="1.1"
   viewBox="0 0 131.72743 131.72743"
   height="497.86746"
   width="497.86746">
  <defs
     id="defs1523" />
  <metadata
     id="metadata1526">
    <rdf:RDF>
      <cc:Work
         rdf:about="">
        <dc:format>image/svg+xml</dc:format>
        <dc:type
           rdf:resource="http://purl.org/dc/dcmitype/StillImage" />
        <dc:title></dc:title>
      </cc:Work>
    </rdf:RDF>
  </metadata>
  <g
     transform="translate(-36.87798,-65.582718)"
     id="layer1">
    <g
       transform="translate(37.588545,65.175124)"
       id="g1471">
      <path
         style="fill:#3dfaf6;fill-opacity:1;stroke:#000000;stroke-width:0;stroke-linecap:butt;stroke-linejoin:miter;stroke-dasharray:none;stroke-opacity:1"
         d="M 124.12378,119.17225 V 91.469921 c 0,0 -2.19836,13.583209 -44.633414,13.583209 -41.991598,0 -46.010151,-13.581776 -46.010151,-13.581776 l 0.08305,27.515576 c 0,0 0.790677,13.22957 45.420168,13.22957 43.665167,0 45.140347,-13.04425 45.140347,-13.04425 z"
         id="path345" />
      <path
         style="fill:#8033e1;fill-opacity:1;stroke:#000000;stroke-width:0;stroke-linecap:butt;stroke-linejoin:miter;stroke-dasharray:none;stroke-opacity:1"
         d="M 124.12378,91.483276 V 61.333788 c 0,0 -3.63487,13.36074 -44.633416,13.36074 -43.390414,0 -45.902001,-13.370106 -45.902001,-13.370106 l -0.0251,29.973534 c 0,0 0.629018,13.730134 46.699365,13.730134 42.274732,0 43.861152,-13.544814 43.861152,-13.544814 z"
         id="path345-1" />
      <ellipse
         style="fill:#fdc077;fill-opacity:1;fill-rule:evenodd;stroke:none;stroke-width:0;stroke-dasharray:none"
         id="path443"
         cx="78.836067"
         cy="30.912203"
         rx="45.280823"
         ry="13.993385" />
      <path
         style="fill:#ff9e2b;fill-opacity:1;stroke:#000000;stroke-width:0;stroke-linecap:butt;stroke-linejoin:miter;stroke-dasharray:none;stroke-opacity:1"
         d="M 124.11518,61.333788 V 31.1843 c 0,0 -2.8285,13.36074 -44.629178,13.36074 -43.200718,0 -45.89764,-13.370106 -45.89764,-13.370106 l -0.02509,29.973534 c 0,0 1.562504,13.730134 46.694929,13.730134 40.491129,0 43.856979,-13.544814 43.856979,-13.544814 z"
         id="path345-1-0" />
      <path
         style="fill:#9453e6;fill-opacity:1;stroke:#000000;stroke-width:0;stroke-linecap:butt;stroke-linejoin:miter;stroke-dasharray:none;stroke-opacity:1"
         d="m 85.804932,25.330462 c 0,0 -8.19641,15.044557 -24.126941,19.345508 C 45.117349,49.147043 33.594017,44.016466 33.594017,44.016466 L 33.044441,30.276756 4.3559273,29.067659 c 0,0 29.5531367,-14.915 45.3410367,-19.6752601 16.188682,-4.8811006 49.95759,-8.90333259 49.95759,-8.90333259 L 76.242073,17.636223 Z"
         id="path245" />
      <path
         style="fill:#9453e6;fill-opacity:1;stroke:#000000;stroke-width:0;stroke-linecap:butt;stroke-linejoin:miter;stroke-dasharray:none;stroke-opacity:1"
         d="M 7.4987908,28.994222 7.7186292,50.94128 c 0,0 -0.690556,0.600916 -1.0829007,1.646028 -1.6031982,4.270538 -0.6333392,8.928402 0.093637,13.302773 0.4985799,3.00006 1.7894772,5.574568 2.890164,8.653751 0.4039825,1.130144 1.0668725,3.547107 1.0668725,3.547107 0,0 0.612953,-12.477571 0.109925,-18.686001 C 10.612702,57.138625 10.259594,54.911537 9.6585956,52.679272 9.5070714,52.116476 8.9277245,50.94128 8.9277245,50.94128 V 28.957744 Z"
         id="path343" />
    </g>
  </g>
</svg>
